<svg width="52" height="15" viewBox="0 0 52 15" fill="none" xmlns="http://www.w3.org/2000/svg">
<path d="M37.5147 6.78092V15H41.9994V10.1294H47.082C49.2197 10.1142 51.036 8.72154 51.7237 6.78092H37.5147Z" fill="#E6E6E6"/>
<path d="M36.9165 0.00775553C37.1781 3.36388 40.3024 6.01986 44.1144 6.01986C44.1294 6.01986 51.9103 6.01986 51.9103 6.01986C51.9701 5.71545 52 5.39582 52 5.06858C52 2.28322 49.795 0.0305863 47.0668 0.00775553H36.9165Z" fill="#E6E6E6"/>
<path d="M30.2794 5.93615C30.3317 5.84482 30.4139 5.79155 30.5186 5.79155C30.668 5.79155 30.7802 5.91332 30.7876 6.05791V14.9239H35.2723V0.00775553H30.7876C30.2196 0.0305863 29.5768 0.44915 29.3376 0.974258L25.7722 8.76717C25.7648 8.79761 25.7498 8.82805 25.7349 8.85849C25.6826 8.93459 25.5929 8.98786 25.4882 8.98786C25.3238 8.98786 25.1892 8.85088 25.1892 8.68345V0.00775553H20.7045V14.9239H25.1892C25.7498 14.8934 26.3777 14.4749 26.6169 13.9574L30.2794 5.95898C30.2719 5.95137 30.2794 5.94376 30.2794 5.93615Z" fill="#E6E6E6"/>
<path d="M13.5363 6.19475L10.9128 14.9237H7.68378L5.06771 6.18714C5.04528 6.05016 4.92569 5.94361 4.7762 5.94361C4.61176 5.94361 4.4847 6.0806 4.4847 6.24041V14.9161H0V0H4.99296C5.81516 0 6.6822 0.654483 6.92138 1.45356L9.10393 8.72136C9.21605 9.08665 9.38796 9.07904 9.50008 8.72136L11.6826 1.45356C11.9218 0.646873 12.7889 0 13.6111 0H18.604V14.9161H14.1193V6.24041C14.1193 6.24041 14.1193 6.24041 14.1193 6.2328C14.1193 6.06538 13.9848 5.936 13.8278 5.936C13.6783 5.94361 13.5587 6.05016 13.5363 6.19475Z" fill="#E6E6E6"/>
</svg>
