<svg width="32" height="32" viewBox="0 0 32 32" fill="none" xmlns="http://www.w3.org/2000/svg">
<path d="M23.9994 18.9738V21.9846C24.0005 22.2642 23.9432 22.5408 23.831 22.7969C23.7188 23.053 23.5542 23.2829 23.3478 23.4719C23.1415 23.6608 22.8978 23.8047 22.6325 23.8942C22.3672 23.9838 22.0861 24.017 21.8072 23.9919C18.7128 23.6563 15.7404 22.601 13.1289 20.9108C10.6992 19.3699 8.63926 17.3141 7.09534 14.8892C5.39586 12.271 4.33824 9.29008 4.00816 6.18795C3.98303 5.91042 4.01608 5.63071 4.1052 5.36663C4.19432 5.10254 4.33757 4.85987 4.52581 4.65407C4.71405 4.44826 4.94317 4.28383 5.19858 4.17123C5.45398 4.05864 5.73008 4.00036 6.0093 4.0001H9.02608C9.5141 3.9953 9.98722 4.16778 10.3572 4.48537C10.7273 4.80297 10.969 5.24401 11.0373 5.72629C11.1646 6.68982 11.4007 7.63587 11.7412 8.54642C11.8765 8.90563 11.9058 9.29602 11.8256 9.67133C11.7454 10.0466 11.559 10.3911 11.2887 10.664L10.0116 11.9386C11.4431 14.4512 13.5276 16.5315 16.0451 17.9602L17.3222 16.6856C17.5956 16.4158 17.9408 16.2298 18.3169 16.1498C18.6929 16.0698 19.0841 16.099 19.444 16.234C20.3564 16.5738 21.3043 16.8095 22.2698 16.9365C22.7582 17.0053 23.2044 17.2509 23.5233 17.6265C23.8422 18.0021 24.0116 18.4817 23.9994 18.9738Z" stroke="#202020" stroke-linecap="round" stroke-linejoin="round"/>
</svg>
