<svg width="28" height="32" viewBox="0 0 28 32" fill="none" xmlns="http://www.w3.org/2000/svg">
<path d="M13.5 29.5V13.5C13.5 13.2239 13.7239 13 14 13C14.2761 13 14.5 13.2239 14.5 13.5V29.5C14.5 29.7761 14.2761 30 14 30C13.7239 30 13.5 29.7761 13.5 29.5Z" fill="#202020"/>
<path d="M19 8C19 5.23858 16.7614 3 14 3C11.2386 3 9 5.23858 9 8C9 10.7614 11.2386 13 14 13V14C10.6863 14 8 11.3137 8 8C8 4.68629 10.6863 2 14 2C17.3137 2 20 4.68629 20 8C20 11.3137 17.3137 14 14 14V13C16.7614 13 19 10.7614 19 8Z" fill="#202020"/>
</svg>
